<svg width="17" height="18" viewBox="0 0 17 18" fill="none" xmlns="http://www.w3.org/2000/svg">
<path d="M8.82023 15.1201V16.3801H7.56023V15.1201H8.82023V13.8601H10.0802V8.82014H6.30023V10.0801H3.78023V15.1201H5.04023V16.3801H7.56023V17.6401H1.26023V16.3801H0.00023438V11.3401H1.26023V10.0801H2.52023V8.82014H6.30023V7.56014H10.0802V3.78014H8.82023V2.52014H7.56023V1.26014H5.04023V2.52014H2.52023V3.78014H3.78023V6.30014H1.26023V5.04014H0.00023438V3.78014H1.26023V2.52014H2.52023V1.26014H5.04023V0.000136375H8.82023V1.26014H12.6002V2.52014H13.8602V16.3801H15.1202V17.6401H10.0802V15.1201H8.82023ZM16.3802 16.3801H15.1202V15.1201H16.3802V16.3801Z" fill="#E6007E"/>
</svg>
