<svg width="87" height="18" viewBox="0 0 87 18" fill="none" xmlns="http://www.w3.org/2000/svg">
<path d="M8.82023 15.1201V16.3801H7.56023V15.1201H8.82023V13.8601H10.0802V8.82014H6.30023V10.0801H3.78023V15.1201H5.04023V16.3801H7.56023V17.6401H1.26023V16.3801H0.00023438V11.3401H1.26023V10.0801H2.52023V8.82014H6.30023V7.56014H10.0802V3.78014H8.82023V2.52014H7.56023V1.26014H5.04023V2.52014H2.52023V3.78014H3.78023V6.30014H1.26023V5.04014H0.00023438V3.78014H1.26023V2.52014H2.52023V1.26014H5.04023V0.000136375H8.82023V1.26014H12.6002V2.52014H13.8602V16.3801H15.1202V17.6401H10.0802V15.1201H8.82023ZM16.3802 16.3801H15.1202V15.1201H16.3802V16.3801ZM25.2087 2.52014V5.04014H23.9487V3.78014H22.6887V5.04014H23.9487V16.3801H26.4687V17.6401H17.6487V16.3801H20.1687V3.78014H18.9087V2.52014H17.6487V1.26014H22.6887V0.000136375H23.9487V2.52014H25.2087V1.26014H27.7287V0.000136375H30.2487V1.26014H31.5087V5.04014H27.7287V2.52014H25.2087ZM46.6202 7.56014H34.0202V8.82014H35.2802V12.6001H36.5402V13.8601H37.8002V15.1201H44.1002V16.3801H42.8402V17.6401H35.2802V16.3801H34.0202V15.1201H32.7602V12.6001H31.5002V6.30014H32.7602V3.78014H34.0202V2.52014H35.2802V1.26014H37.8002V0.000136375H41.5802V1.26014H44.1002V2.52014H45.3602V5.04014H46.6202V7.56014ZM39.0602 1.26014V2.52014H36.5402V3.78014H35.2802V6.30014H42.8402V3.78014H41.5802V2.52014H40.3202V1.26014H39.0602ZM45.3602 15.1201H44.1002V13.8601H45.3602V15.1201ZM55.4487 0.000136375V2.52014H56.7087V1.26014H59.2287V0.000136375H63.0087V1.26014H64.2687V2.52014H65.5287V16.3801H68.0487V17.6401H59.2287V16.3801H61.7487V2.52014H56.7087V3.78014H55.4487V2.52014H54.1887V3.78014H55.4487V16.3801H57.9687V17.6401H49.1487V16.3801H51.6687V2.52014H49.1487V1.26014H54.1887V0.000136375H55.4487ZM79.3788 15.1201V16.3801H78.1188V15.1201H79.3788V13.8601H80.6388V8.82014H76.8588V10.0801H74.3388V15.1201H75.5988V16.3801H78.1188V17.6401H71.8188V16.3801H70.5588V11.3401H71.8188V10.0801H73.0788V8.82014H76.8588V7.56014H80.6388V3.78014H79.3788V2.52014H78.1188V1.26014H75.5988V2.52014H73.0788V3.78014H74.3388V6.30014H71.8188V5.04014H70.5588V3.78014H71.8188V2.52014H73.0788V1.26014H75.5988V0.000136375H79.3788V1.26014H83.1588V2.52014H84.4188V16.3801H85.6788V17.6401H80.6388V15.1201H79.3788ZM86.9388 16.3801H85.6788V15.1201H86.9388V16.3801Z" fill="#E6007E"/>
</svg>
